<svg class="c-lap-info-bg" width="24" height="24" viewBox="0 0 24 24" xmlns="http://www.w3.org/2000/svg">
  <path class="c-lap-info-color" d="M12 1.09616C5.9784 1.09616 1.09619 5.97837 1.09619 12C1.09619 18.0216 5.9784 22.9039 12 22.9039C18.0217 22.9039 22.9039 18.0216 22.9039 12C22.9039 5.97837 18.0217 1.09616 12 1.09616ZM14.2717 17.9964C13.7092 18.2164 13.2621 18.3858 12.9267 18.5012C12.5914 18.6166 12.2056 18.6743 11.7621 18.6743C11.0842 18.6743 10.5541 18.5084 10.1755 18.1767C9.80052 17.8486 9.61302 17.4267 9.61302 16.9147C9.61302 16.7164 9.62744 16.5144 9.65629 16.3089C9.68153 16.0998 9.7284 15.869 9.7897 15.6058L10.4928 13.125C10.5541 12.887 10.6082 12.6635 10.6515 12.4507C10.6947 12.238 10.7128 12.0433 10.7128 11.8666C10.7128 11.5529 10.6479 11.3293 10.5181 11.2067C10.3847 11.0805 10.1359 11.0192 9.76807 11.0192C9.58778 11.0192 9.40028 11.0481 9.20917 11.1022C9.01807 11.1599 8.85581 11.2139 8.71879 11.2644L8.90629 10.5C9.36422 10.3125 9.80412 10.1539 10.226 10.0204C10.6443 9.88703 11.0445 9.81852 11.4159 9.81852C12.0902 9.81852 12.613 9.98438 12.9772 10.3089C13.3414 10.6334 13.5253 11.0589 13.5253 11.5781C13.5253 11.6863 13.5145 11.8774 13.4892 12.1478C13.464 12.4183 13.4171 12.6671 13.3486 12.8978L12.6491 15.3714C12.5914 15.5697 12.5409 15.7969 12.494 16.0493C12.4508 16.3017 12.4291 16.4964 12.4291 16.6262C12.4291 16.9543 12.5012 17.1815 12.6491 17.3005C12.7933 17.4195 13.0493 17.4772 13.4135 17.4772C13.583 17.4772 13.7741 17.4483 13.9904 17.3906C14.2032 17.3293 14.3582 17.2789 14.4556 17.232L14.2717 17.9964ZM14.1455 7.95433C13.8209 8.25722 13.4279 8.40866 12.97 8.40866C12.5121 8.40866 12.1154 8.25722 11.7873 7.95433C11.4592 7.65145 11.2969 7.28366 11.2969 6.85457C11.2969 6.42549 11.4628 6.05409 11.7873 5.7476C12.1154 5.44111 12.5121 5.28967 12.97 5.28967C13.4279 5.28967 13.8209 5.44111 14.1455 5.7476C14.4736 6.05409 14.6359 6.42549 14.6359 6.85457C14.6359 7.28366 14.4736 7.65145 14.1455 7.95433Z"/>
</svg>
