<svg width="79" height="36" viewBox="0 0 79 36" fill="none" xmlns="http://www.w3.org/2000/svg">
<path d="M18.8979 10.9371C18.4523 10.9371 18.0767 10.5931 18.0444 10.1416L17.3853 0.918195C17.3516 0.446281 17.7069 0.0363219 18.1788 0.00204883C18.6461 -0.030247 19.0607 0.323029 19.095 0.795603L19.7541 10.019C19.7877 10.4909 19.4324 10.9009 18.9605 10.9352C18.9388 10.9365 18.9183 10.9371 18.8979 10.9371Z" fill="#010203"/>
<path d="M23.2071 11.5554C23.1082 11.5554 23.0067 11.5383 22.9085 11.5014C22.4649 11.3366 22.2388 10.8429 22.4036 10.3994L23.5109 7.41957C23.6757 6.976 24.1707 6.74861 24.6122 6.9147C25.0558 7.07948 25.2819 7.57248 25.1171 8.01671L24.0098 10.9965C23.882 11.3419 23.5551 11.5554 23.2071 11.5554Z" fill="#010203"/>
<path d="M14.9189 12.1466C14.6039 12.1466 14.3007 11.9726 14.1511 11.6714L12.1876 7.72075C11.9767 7.29629 12.1494 6.78219 12.5732 6.57194C12.9976 6.36103 13.5111 6.53371 13.722 6.95751L15.6854 10.9081C15.8963 11.3326 15.7237 11.8467 15.2999 12.057C15.1773 12.1189 15.0474 12.1466 14.9189 12.1466Z" fill="#010203"/>
<path d="M18.2843 25.4103C17.8341 24.9911 17.2455 24.7815 16.6332 24.794C16.0183 24.8164 15.4495 25.0768 15.0303 25.5269L14.4984 26.0977L16.2872 18.1965C16.566 16.958 15.787 15.7222 14.5485 15.4408C14.2513 15.3735 13.954 15.3716 13.6699 15.4184C13.5744 14.4587 12.8882 13.6203 11.897 13.3962C10.9215 13.1781 9.95657 13.619 9.44907 14.4185C9.23882 14.2906 9.01209 14.1878 8.76558 14.1318C7.52912 13.8517 6.29067 14.6307 6.0099 15.8698L5.98155 15.9944C5.79832 15.8942 5.60455 15.8085 5.39034 15.7598C4.15058 15.4803 2.91543 16.2594 2.64125 17.4701C2.62806 17.5202 1.32569 22.5155 0.464905 26.3192C-0.439377 30.3166 0.248721 32.8957 0.27904 33.0031C0.383836 33.3827 0.728544 33.6325 1.10423 33.6325C1.18003 33.6325 1.25648 33.622 1.33294 33.6009C1.78903 33.4757 2.05729 33.0037 1.93074 32.547C1.92481 32.5246 1.32635 30.2804 2.13638 26.6975C2.99057 22.9215 4.28635 17.9519 4.30613 17.8755C4.37797 17.5584 4.69368 17.3607 5.0107 17.4306C5.32773 17.5024 5.52744 17.8188 5.45559 18.1352C5.43978 18.2037 5.44966 18.2709 5.45098 18.3395L4.39049 23.0257C4.28635 23.487 4.5757 23.9458 5.03707 24.0506C5.101 24.0651 5.16427 24.0716 5.22689 24.0716C5.61839 24.0716 5.97167 23.8021 6.06196 23.404L7.68137 16.2488C7.75321 15.9311 8.07221 15.7308 8.38726 15.8026C8.54083 15.8375 8.67133 15.9298 8.7557 16.0636C8.83874 16.1954 8.86577 16.3523 8.83215 16.5045L7.21209 23.665C7.10795 24.1264 7.3973 24.5851 7.85866 24.6899C8.32069 24.798 8.77876 24.5047 8.88356 24.044L10.501 16.8928C10.5016 16.8908 10.5023 16.8895 10.5023 16.8881C10.5023 16.8862 10.5023 16.8848 10.503 16.8835L10.8127 15.5146C10.8852 15.1976 11.2003 14.9979 11.5193 15.0677C11.8357 15.1396 12.0347 15.4566 11.9629 15.7729L10.0311 24.3037C9.92691 24.765 10.2163 25.2238 10.6776 25.3285C10.7099 25.3365 10.7422 25.3358 10.7739 25.3398C10.7903 25.3444 10.8029 25.3562 10.82 25.3602C11.2827 25.4696 11.7407 25.1756 11.8449 24.7143L13.4643 17.5598C13.5368 17.2427 13.8532 17.0417 14.1689 17.1129C14.4859 17.1847 14.6856 17.5024 14.6144 17.8188L12.1276 28.8033C12.1197 28.8376 12.129 28.8705 12.1257 28.9042C12.1178 28.9727 12.1125 29.0373 12.121 29.1052C12.1257 29.1401 12.1355 29.1724 12.1448 29.2054C12.1639 29.2831 12.1896 29.3563 12.2305 29.4268C12.2423 29.4466 12.2568 29.4637 12.27 29.4822C12.3049 29.5329 12.3306 29.5883 12.3774 29.6325C12.4012 29.6549 12.4321 29.6628 12.4572 29.6812C12.4651 29.6872 12.4743 29.6918 12.4829 29.6971C12.5738 29.7597 12.6694 29.8032 12.7722 29.8269C12.7729 29.8269 12.7736 29.8276 12.7742 29.8276C12.7788 29.8282 12.7828 29.8282 12.7874 29.8289C13.0141 29.8757 13.2455 29.8295 13.4412 29.6938C13.4676 29.676 13.4939 29.6595 13.5177 29.639C13.5401 29.6199 13.5671 29.6107 13.5875 29.589L16.2833 26.6942C16.3907 26.5789 16.5363 26.5123 16.6939 26.5064C16.854 26.5097 17.0003 26.5571 17.1157 26.6632C17.3536 26.8847 17.3668 27.2584 17.1612 27.4805C16.5897 28.0625 11.5555 33.214 10.7989 34.7675C10.5919 35.1933 10.7686 35.706 11.1944 35.913C11.315 35.9717 11.4428 36 11.5687 36C11.8864 35.9993 12.1916 35.822 12.3399 35.5182C12.8177 34.5368 16.3004 30.8037 18.4003 28.6649C19.2663 27.7349 19.2136 26.2744 18.2843 25.4103Z" fill="#010203"/>
<path d="M34.1903 24.8698C32.8325 21.2158 30.877 16.438 30.8678 16.4162C30.4255 15.2279 29.0994 14.6195 27.9064 15.0598C27.7008 15.1362 27.5195 15.247 27.3508 15.3722L27.306 15.2509C27.0911 14.6736 26.6647 14.2148 26.1051 13.9591C25.5462 13.7034 24.9207 13.6803 24.3466 13.8945C24.1087 13.9828 23.8971 14.1146 23.7047 14.2689C23.097 13.5445 22.082 13.2347 21.1434 13.5808C20.1917 13.9347 19.6229 14.8555 19.6539 15.8184C19.3619 15.8098 19.0686 15.8566 18.7878 15.9621C18.2104 16.175 17.751 16.6014 17.4947 17.1603C17.2383 17.7193 17.2145 18.3447 17.4287 18.9221L20.7176 27.7659C20.6676 27.8054 20.6122 27.8351 20.5707 27.8865C20.2701 28.2523 20.3235 28.7921 20.6886 29.0926L21.6101 29.8493C21.6674 29.8967 22.7404 30.7839 24.058 30.7839C24.4277 30.7839 24.8172 30.714 25.2087 30.5361C25.6398 30.3403 25.8296 29.8322 25.6345 29.4011C25.4381 28.9701 24.9306 28.7802 24.4996 28.9753C23.9057 29.2442 23.1939 28.8593 22.8749 28.651L19.035 18.325C18.9803 18.1773 18.9862 18.0172 19.0521 17.8741C19.1174 17.7311 19.2347 17.6224 19.385 17.567C19.5326 17.511 19.6914 17.5182 19.8338 17.5828C19.9768 17.6487 20.0856 17.766 20.1409 17.9143L22.6976 24.7901C22.8624 25.2336 23.356 25.459 23.7989 25.2949C23.8213 25.2864 23.8358 25.2692 23.8569 25.2587C23.8833 25.2514 23.9097 25.2541 23.9354 25.2448C24.3789 25.0801 24.605 24.5864 24.4402 24.1428L21.3932 15.945C21.2799 15.6405 21.4354 15.2997 21.7392 15.1877C22.0431 15.0756 22.3852 15.2305 22.4979 15.5343L22.9869 16.8506C22.9876 16.8525 22.9876 16.8539 22.9882 16.8552C22.9882 16.8558 22.9889 16.8565 22.9896 16.8572L25.5449 23.7322C25.7097 24.1758 26.2033 24.4032 26.6469 24.2371C27.0905 24.0723 27.3165 23.5786 27.1518 23.1351L24.5945 16.2567C24.5404 16.1097 24.5463 15.9509 24.6116 15.8079C24.6775 15.6648 24.7942 15.5568 24.9431 15.5014C25.0901 15.446 25.2496 15.4526 25.3926 15.5172C25.5357 15.5831 25.6451 15.6998 25.6998 15.8481L28.2557 22.7277C28.3843 23.0724 28.7112 23.2866 29.0592 23.2866C29.1581 23.2866 29.2596 23.2695 29.3578 23.2326C29.8013 23.0678 30.0274 22.5748 29.8626 22.1306L28.1885 17.6257C28.1806 17.5578 28.1813 17.4905 28.1569 17.424C28.0442 17.1195 28.1997 16.7787 28.5029 16.6667C28.8068 16.5526 29.1488 16.7082 29.2721 17.0397C29.2919 17.0872 31.2369 21.8393 32.584 25.4669C33.8502 28.8745 33.5681 31.2182 33.5654 31.238C33.5015 31.7066 33.8297 32.1383 34.2984 32.2029C34.3379 32.2082 34.3768 32.2108 34.4157 32.2108C34.8375 32.2108 35.2046 31.8997 35.2639 31.47C35.2784 31.3593 35.6179 28.713 34.1903 24.8698Z" fill="#010203"/>
<path d="M19.8898 29.9079C19.5213 29.6107 18.9815 29.6706 18.6849 30.0378C18.3884 30.4068 18.4464 30.946 18.8154 31.2426C22.4682 34.1822 23.4061 35.2136 23.6407 35.5676C23.8055 35.8161 24.0783 35.9505 24.3552 35.9505C24.518 35.9505 24.6827 35.905 24.8277 35.8082C25.2225 35.5465 25.33 35.0146 25.0683 34.6198C24.7361 34.1189 23.8378 33.0848 19.8898 29.9079Z" fill="#010203"/>
<path d="M25.3841 26.6619C25.021 26.687 24.7468 27.002 24.7718 27.3645C24.7969 27.7277 25.1086 27.9893 25.4744 27.9775C27.9342 27.7883 30.2496 31.2776 30.2727 31.3132C30.3992 31.505 30.6095 31.6091 30.8237 31.6091C30.9482 31.6091 31.0741 31.5735 31.1855 31.4997C31.4893 31.2993 31.5731 30.8913 31.3733 30.5875C31.262 30.4181 28.5979 26.4411 25.3841 26.6619Z" fill="#010203"/>
<path d="M49.64 14.16H52.14V29H49.64V14.16Z" fill="#010203"/>
<path d="M59.5013 18.2C61.0746 18.2 62.2746 18.58 63.1013 19.34C63.9413 20.0867 64.3613 21.22 64.3613 22.74V29H62.0013V27.7C61.6946 28.1667 61.2546 28.5267 60.6813 28.78C60.1213 29.02 59.4413 29.14 58.6413 29.14C57.8413 29.14 57.1413 29.0067 56.5413 28.74C55.9413 28.46 55.4746 28.08 55.1413 27.6C54.8213 27.1067 54.6613 26.5533 54.6613 25.94C54.6613 24.98 55.0146 24.2133 55.7213 23.64C56.4413 23.0533 57.5679 22.76 59.1013 22.76H61.8613V22.6C61.8613 21.8533 61.6346 21.28 61.1813 20.88C60.7413 20.48 60.0813 20.28 59.2013 20.28C58.6013 20.28 58.0079 20.3733 57.4213 20.56C56.8479 20.7467 56.3613 21.0067 55.9613 21.34L54.9813 19.52C55.5413 19.0933 56.2146 18.7667 57.0013 18.54C57.7879 18.3133 58.6213 18.2 59.5013 18.2ZM59.1613 27.32C59.7879 27.32 60.3413 27.18 60.8213 26.9C61.3146 26.6067 61.6613 26.1933 61.8613 25.66V24.42H59.2813C57.8413 24.42 57.1213 24.8933 57.1213 25.84C57.1213 26.2933 57.3013 26.6533 57.6613 26.92C58.0213 27.1867 58.5213 27.32 59.1613 27.32Z" fill="#010203"/>
<path d="M73.4897 18.2C74.5297 18.2 75.4564 18.4267 76.2697 18.88C77.0964 19.3333 77.743 19.9733 78.2097 20.8C78.6764 21.6267 78.9097 22.58 78.9097 23.66C78.9097 24.74 78.6764 25.7 78.2097 26.54C77.743 27.3667 77.0964 28.0067 76.2697 28.46C75.4564 28.9133 74.5297 29.14 73.4897 29.14C72.0497 29.14 70.9097 28.66 70.0697 27.7V32.88H67.5697V18.32H69.9497V19.72C70.363 19.2133 70.8697 18.8333 71.4697 18.58C72.083 18.3267 72.7564 18.2 73.4897 18.2ZM73.2097 27C74.1297 27 74.883 26.6933 75.4697 26.08C76.0697 25.4667 76.3697 24.66 76.3697 23.66C76.3697 22.66 76.0697 21.8533 75.4697 21.24C74.883 20.6267 74.1297 20.32 73.2097 20.32C72.6097 20.32 72.0697 20.46 71.5897 20.74C71.1097 21.0067 70.7297 21.3933 70.4497 21.9C70.1697 22.4067 70.0297 22.9933 70.0297 23.66C70.0297 24.3267 70.1697 24.9133 70.4497 25.42C70.7297 25.9267 71.1097 26.32 71.5897 26.6C72.0697 26.8667 72.6097 27 73.2097 27Z" fill="#010203"/>
</svg>
