<svg width="134" height="64" viewBox="0 0 134 64" fill="none" xmlns="http://www.w3.org/2000/svg">
<g clip-path="url(#clip0)">
<path d="M121.572 40.5234C122.892 38.7518 123.686 33.5032 123.027 30.9346C122.614 31.1259 122.23 31.3131 121.836 31.4948C119.651 32.5093 117.569 31.9931 116.549 30.1857C115.463 28.2504 116.011 25.4257 117.825 24.2846C118.483 23.8716 119.358 23.7863 120.148 23.6156C120.483 23.5426 120.853 23.6363 121.306 23.6597C121.133 22.5103 120.575 21.672 120.005 20.8653C118.8 19.1821 117.235 17.788 115.424 16.7839C113.877 15.9043 112.258 15.6249 110.55 16.3462C110.465 16.3827 110.379 16.4145 110.291 16.4412C109.275 16.7344 108.572 16.488 108.336 15.7529C108.111 15.055 108.529 14.2993 109.446 13.9524C111.251 13.2724 113.145 12.9682 114.952 13.7267C120.342 15.9828 123.953 19.7448 124.725 25.7795C124.771 26.1401 124.8 26.5214 124.94 26.8477C126.334 30.0908 126.3 33.444 125.766 36.8412C125.696 37.2817 125.628 37.7236 125.536 38.3898C126.34 38.0154 126.94 37.7222 127.55 37.4538C128.472 37.0491 129.392 36.6361 130.332 36.2755C130.673 36.1341 131.043 36.0755 131.411 36.1044C131.779 36.1334 132.135 36.2491 132.45 36.442C132.953 36.7435 133.283 37.1909 133.179 37.8075C133.074 38.4242 132.65 38.7188 132.051 38.8496C128.862 39.553 126.08 41.1084 123.517 43.0604C122.038 44.1836 121.422 44.1712 120.111 42.8773C118.582 41.3631 117.006 39.9026 115.441 38.4284C114.798 37.8213 114.601 37.1895 114.92 36.6155C115.211 36.0979 115.836 35.8556 116.619 36.113C117.08 36.2839 117.499 36.5503 117.85 36.8949C119.099 38.0828 120.325 39.3066 121.572 40.5234ZM118.819 27.9971C118.834 28.7858 119.186 29.196 119.839 29.1809C120.727 29.1589 121.766 28.2173 121.73 27.4836C121.702 26.9867 120.882 26.4416 120.137 26.4251C119.317 26.4113 118.804 27.0252 118.82 28.0026L118.819 27.9971Z" fill="#010203"/>
<path d="M52.8378 51.2809C53.3884 52.886 52.7882 53.9225 51.208 54.0739C50.115 54.1785 49.3593 53.398 49.4928 52.3009C49.9567 48.4549 53.8853 46.3337 57.3046 48.1438C58.3852 48.7165 59.3405 49.5204 60.461 50.2967L65.3517 46.3791C65.104 45.9786 64.8493 45.6165 64.6442 45.227C64.3483 44.664 64.0124 44.1037 63.8321 43.5008C63.5994 42.7245 63.9325 42.0059 64.5616 41.5847C65.4701 40.9763 66.4475 41.4333 66.5548 42.5166C66.6787 43.7693 66.6787 43.7693 67.5803 44.6901C67.8267 44.5635 68.1103 44.4424 68.3663 44.2772C68.7132 44.0542 69.0353 43.7968 69.3726 43.5586C70.4146 42.8263 71.2914 42.8195 71.7952 43.5366C72.299 44.2538 72.0169 45.0274 70.9803 45.8313C70.4848 46.2167 69.981 46.5925 69.3285 47.0936C70.4449 48.2347 71.4552 49.2767 72.4794 50.305C72.7037 50.5307 72.9969 50.6877 73.2199 50.9134C73.6508 51.347 73.7568 51.866 73.4828 52.4276C73.3466 52.6995 73.1122 52.9095 72.827 53.0151C72.5417 53.1206 72.2271 53.1138 71.9466 52.9961C71.3911 52.7917 70.8779 52.4871 70.4325 52.0972C69.6905 51.4213 69.0353 50.6505 68.3498 49.914C67.9809 49.5176 67.6244 49.1102 67.1935 48.6298C65.3476 49.8879 63.6669 51.1846 62.1252 52.791C62.373 53.3347 62.6001 53.8261 62.8134 54.3203C63.4315 55.7188 63.8431 57.1642 63.7261 58.7128C63.5884 60.6082 62.7446 62.1224 61.185 63.2168C60.3519 63.8025 59.3396 64.0773 58.3246 63.9931C56.7017 63.8816 55.6046 62.8465 55.4078 61.2304C55.215 59.6433 55.5454 58.1278 56.1456 56.6686C56.442 55.9498 56.7845 55.251 57.1711 54.5763C57.5524 53.9046 58.0066 53.2741 58.4554 52.5845C57.7905 51.5191 56.8283 50.8515 55.7312 50.3711C54.4222 49.7915 53.7669 50.02 52.8378 51.2809ZM58.2461 61.0804C59.6144 61.0515 60.187 60.7074 60.6372 59.6626C61.2841 58.1594 60.8739 56.7912 60.0576 55.1875C58.889 57.1532 57.9777 58.8807 58.2461 61.0804V61.0804Z" fill="#010203"/>
<path d="M88.3975 35.5473C86.948 35.6313 85.8867 36.2259 84.8708 36.9114C84.378 37.2418 83.9458 37.6644 83.4544 37.9975C82.7978 38.4394 82.1728 38.4105 81.6897 37.9686C81.1776 37.5047 81.0675 36.7586 81.5259 36.0951C82.0434 35.3436 82.6711 34.6677 83.2093 33.9299C83.6911 33.2692 84.1413 32.5795 84.1936 31.5554C83.7957 31.5375 83.4186 31.4177 83.1323 31.5265C82.1966 31.878 81.2872 32.2957 80.4109 32.7764C79.7791 33.1343 79.2835 33.6023 79.5602 34.5479C79.7694 35.2624 79.1844 35.7868 78.3681 35.9134C77.3812 36.0635 76.4685 35.5748 76.3639 34.7049C76.302 34.1942 76.3639 33.5513 76.6392 33.1384C78.364 30.4831 80.7784 28.8712 84.0036 28.7831C85.9775 28.728 87.0141 29.9063 86.9686 31.9064C86.9686 32.1308 86.9452 32.3551 86.9273 32.6896C87.2783 32.6635 87.5771 32.6387 87.8744 32.6194C88.8737 32.5547 89.8841 32.3772 90.8724 32.4529C92.7486 32.5988 94.0384 33.6642 94.589 35.4441C95.4439 38.1833 95.0736 40.7987 93.43 43.1718C92.633 44.3226 91.5029 44.9847 90.0713 45.0384C88.0946 45.1127 86.6424 43.8312 86.4552 41.8614C86.3175 40.3982 86.7181 39.0505 87.3307 37.7484C87.6596 37.0587 87.9969 36.3746 88.3975 35.5473ZM91.5855 35.8075C90.6591 37.3216 89.8758 38.6981 89.3831 40.2206C89.2804 40.4764 89.2384 40.7525 89.2605 41.0272C89.3252 41.4016 89.434 42.0046 89.6501 42.0651C90.0121 42.1684 90.5214 42.0018 90.8793 41.7898C91.1684 41.6233 91.3721 41.2516 91.5332 40.9295C92.218 39.6168 92.3972 38.0984 92.037 36.6623C91.9778 36.4296 91.8057 36.219 91.5855 35.8075V35.8075Z" fill="#010203"/>
<path d="M22.9769 33.3476C21.2136 34.9471 19.548 36.5645 18.2389 38.5096C18.0324 38.8165 18.0324 39.2777 17.9815 39.6727C17.8783 40.4642 17.508 40.8965 16.8197 40.9694C16.0723 41.0492 15.256 40.5386 15.2464 39.776C15.2367 39.0877 15.3524 38.2466 15.7392 37.7112C16.9395 36.0456 18.2857 34.4846 19.5934 32.903C19.994 32.4198 20.4675 31.9986 20.9823 31.4714C20.4827 30.9538 20.0669 30.5423 19.6733 30.1087C19.3677 29.77 19.0359 29.4369 18.8116 29.0474C18.3463 28.2366 18.5693 27.3955 19.281 27.0294C20.1069 26.604 21.1572 26.9069 21.4435 27.781C21.6899 28.5367 22.1538 29.0295 22.8778 29.5457C23.7134 28.8216 24.5627 28.0838 25.4147 27.3501C25.9364 26.9014 26.4347 26.4223 26.9936 26.0259C27.792 25.4601 28.611 25.5345 29.0845 26.1429C29.5842 26.7857 29.4122 27.7094 28.6716 28.3206C27.4754 29.2993 26.2751 30.2738 24.999 31.3117C25.3198 31.6614 25.5015 31.9133 25.7341 32.1046C29.1687 34.9419 33.1053 37.1094 37.3395 38.4944C37.8062 38.6458 38.2384 38.7931 38.7821 38.5288C39.8586 38.0071 40.551 38.3361 40.9089 39.3905C41.2874 40.5083 40.8056 41.593 39.7154 41.7224C38.9735 41.8091 38.1613 41.6673 37.4331 41.4471C34.1295 40.4587 30.9731 39.107 28.1141 37.1482C26.6784 36.1667 25.3142 35.0834 23.9171 34.0469L22.9769 33.3476Z" fill="#010203"/>
<path d="M75.1801 3.62989C74.8842 3.62989 74.741 3.59135 74.6295 3.63677C72.1352 4.66916 69.6396 5.69467 67.1619 6.76698C66.7145 6.95969 66.3511 7.3465 65.9505 7.64658C65.7467 7.82781 65.5285 7.99216 65.2981 8.138C64.6401 8.48075 63.9215 8.37751 63.532 7.91638C63.0832 7.39192 63.0956 6.63621 63.7206 6.07046C64.3561 5.47609 65.0664 4.96708 65.8335 4.55629C67.4619 3.73037 69.1372 2.96778 70.8083 2.23685C72.277 1.59677 73.7761 1.02689 75.2668 0.447371C75.6899 0.269272 76.1299 0.134153 76.58 0.04405C78.1369 -0.224372 79.1004 0.757088 78.7549 2.28916C78.6173 2.90721 78.3323 3.49637 78.0832 4.08689C77.6042 5.23078 77.0852 6.34577 76.6186 7.49241C76.3942 8.04376 76.225 8.61597 76.1134 9.20067C75.8133 10.8112 76.3102 11.6784 77.8919 12.0611C78.827 12.2659 79.785 12.3469 80.7413 12.302C81.6484 12.2731 82.5473 12.0102 83.4558 11.9055C83.9499 11.8329 84.4525 11.8417 84.9438 11.9317C85.5329 12.0625 85.8619 12.5387 85.8784 13.1458C85.8936 13.6964 85.6224 14.1823 85.0952 14.3241C82.0132 15.161 78.9008 15.7791 75.8477 14.2704C74.0954 13.4046 73.2062 11.9468 73.2447 9.94675C73.2764 8.25362 73.8807 6.72569 74.507 5.19912C74.7093 4.70633 74.9268 4.22042 75.1801 3.62989Z" fill="#010203"/>
<path d="M52.8171 30.0839C51.3704 30.0632 50.1577 29.7122 49.2189 28.8739C48.0668 27.847 46.9353 26.7499 46.0199 25.5152C44.6323 23.6431 43.4348 21.6306 42.1656 19.6691C41.9949 19.4048 41.7774 19.0744 41.8063 18.8005C41.8518 18.3876 41.9894 17.837 42.2854 17.625C42.5813 17.413 43.2572 17.3263 43.5242 17.519C44.1409 17.954 44.8003 18.5073 45.1072 19.1708C46.2085 21.5233 47.7584 23.544 49.4199 25.4918C49.9406 26.0691 50.5583 26.5508 51.2452 26.9151C52.4703 27.5924 53.3911 27.4657 54.3451 26.4471C54.9974 25.7413 55.5613 24.9587 56.0244 24.1166C56.6452 22.9989 57.1257 21.8041 57.6763 20.6492C58.242 19.4668 58.944 19.0524 59.7672 19.3938C60.5683 19.7255 60.761 20.5583 60.2325 21.7655C59.3515 23.7766 58.5146 25.8166 57.1463 27.569C56.0065 29.0336 54.6204 30.0825 52.8171 30.0839Z" fill="#010203"/>
<path d="M16.9808 56.575C17.5314 56.7457 18.0008 56.8724 18.455 57.0376C19.219 57.3129 19.5645 57.8249 19.4585 58.4691C19.3525 59.1134 18.8377 59.5401 18.0352 59.4781C16.2849 59.3546 14.6203 58.6729 13.2862 57.5331C12.3405 56.7265 12.6599 55.3789 13.8726 55.0554C14.7205 54.831 15.1486 54.3327 15.6153 53.6926C16.2842 52.7703 16.9821 51.8398 17.8177 51.0703C19.3828 49.6222 21.226 49.6388 22.7167 51.1516C23.6707 52.1151 24.4346 53.2797 25.2482 54.3795C25.6143 54.8764 25.5235 55.4408 25.1848 55.9267C24.8256 56.4553 24.3961 56.9357 24.0286 57.4588C23.6418 58.0094 23.2921 58.5917 22.9273 59.1588C22.8391 59.3185 22.7402 59.4721 22.6314 59.6185C22.1152 60.2352 21.3856 60.4334 20.7979 60.1279C20.4703 59.9512 20.2257 59.6526 20.1169 59.2967C20.0082 58.9408 20.0441 58.5564 20.217 58.2269C20.568 57.5455 21.1076 56.9619 21.5605 56.3328C21.8881 55.8758 22.6355 55.5069 22.1895 54.8337C21.6954 54.0932 21.0443 53.4448 20.4 52.8268C20.2844 52.7194 19.7613 52.8777 19.5549 53.0594C18.4332 54.0134 17.5515 55.2177 16.9808 56.575V56.575Z" fill="#010203"/>
<path d="M23.0113 42.9131C23.0113 43.2076 23.0196 43.5036 23.0113 43.7982C22.9824 44.697 22.5502 45.1747 21.7146 45.249C20.8378 45.3233 20.155 44.8361 20.0421 43.9867C19.9941 43.6253 20.0333 43.2576 20.1564 42.9144C20.7662 41.3273 21.7821 40.0568 23.2687 39.1978C23.9281 38.8179 24.6452 38.6114 25.3404 39.0932C25.9846 39.5406 26.0438 40.1944 25.9392 40.9336C25.8855 41.3149 25.9226 41.7884 26.1099 42.1092C26.8449 43.3632 27.6543 44.5718 28.5367 45.9538C28.9648 45.4748 29.2607 45.1527 29.547 44.8223C29.7865 44.547 29.9861 44.2318 30.2518 43.984C30.6937 43.571 31.2154 43.4334 31.7522 43.7982C32.2891 44.1629 32.4556 44.6846 32.2216 45.2435C31.9679 45.8271 31.6507 46.381 31.2759 46.8953C30.4032 48.1204 29.4961 49.3208 28.5862 50.5183C28.3089 50.8827 28.0018 51.2234 27.6681 51.537C27.0363 52.1316 26.3425 52.239 25.8125 51.8701C25.2482 51.4764 25.138 50.7042 25.595 49.8906C25.9282 49.3001 26.3356 48.7509 26.721 48.1659L23.332 42.8305L23.0113 42.9131Z" fill="#010203"/>
<path d="M6.52197 43.3288C4.89767 42.9805 3.57759 42.6102 2.24512 43.527C1.48252 44.0487 0.633209 43.8312 0.216122 43.1388C0.113176 42.9727 0.0451423 42.7874 0.0161727 42.5942C-0.0127969 42.401 -0.00209532 42.2039 0.0476246 42.0149C0.0973444 41.8259 0.18504 41.6491 0.305362 41.4951C0.425684 41.3412 0.576108 41.2134 0.74746 41.1195C1.17644 40.8575 1.65088 40.6787 2.14601 40.5922C4.29751 40.2578 6.43249 40.1628 8.46837 41.4801C8.81112 41.1924 9.14011 40.8951 9.48975 40.6253C9.99356 40.2344 10.4836 39.8118 11.0328 39.4979C11.3318 39.3227 11.6732 39.2331 12.0196 39.2389C12.3661 39.2447 12.7042 39.3458 12.9971 39.5309C13.4679 39.8063 13.7391 40.2068 13.7088 40.7698C13.6785 41.3328 13.3715 41.7637 12.8237 41.8435C11.9854 41.966 11.4251 42.4863 10.8663 43.0218C9.21445 44.6007 7.56262 46.1768 5.94383 47.7901C5.36844 48.3655 4.8784 48.9987 4.79581 49.9044C4.72974 50.6133 4.08828 50.9864 3.40552 50.9162C2.6856 50.8432 2.0992 50.2816 2.16665 49.5314C2.21759 48.9629 2.38827 48.3297 2.71726 47.8795C3.54318 46.7343 4.47921 45.6771 5.38221 44.5828C5.68917 44.2029 6.0333 43.8601 6.52197 43.3288Z" fill="#010203"/>
<path d="M15.161 44.9613C14.9257 45.2863 14.6687 45.5949 14.3915 45.885C13.3082 46.9256 12.1781 47.9167 11.1154 48.9766C10.8497 49.2423 10.7589 49.6924 10.6116 50.0668C10.2592 50.9671 9.32319 51.4764 8.54683 51.1681C7.73606 50.8528 7.36164 49.8315 7.90124 48.9739C9.20098 46.9196 10.8783 45.1302 12.8443 43.7004C13.801 43.0039 15.0936 43.6426 15.161 44.9613Z" fill="#010203"/>
<path d="M10.2331 52.6203C10.3335 52.3932 10.4258 51.9045 10.7093 51.5851C12.1038 50.0159 13.5367 48.4811 14.9848 46.9614C15.2538 46.7123 15.5736 46.5244 15.9222 46.4108C16.689 46.119 17.4158 46.3599 17.7117 46.9504C17.9953 47.5079 17.8094 48.0778 17.1845 48.627C16.3283 49.38 15.4294 50.0957 14.6448 50.9175C14.0942 51.4998 13.7294 52.2624 13.2105 52.886C12.8443 53.3264 12.4176 53.7986 11.9138 54.023C11.0493 54.4084 10.2482 53.7848 10.2331 52.6203Z" fill="#010203"/>
<path d="M25.7203 22.3217C25.3569 22.3217 24.9894 22.3492 24.6273 22.3217C23.4931 22.2212 22.8007 21.4958 22.9755 20.5969C23.1228 19.8095 24.2929 18.9864 25.0995 19.3291C26.0231 19.7214 26.9482 19.6994 27.887 19.7999C28.4747 19.8632 28.9221 20.1647 29.0157 20.8061C29.0997 21.3801 28.7473 21.9005 28.0246 22.0753C27.2785 22.2542 26.5008 22.3052 25.7368 22.4125L25.7203 22.3217Z" fill="#010203"/>
<path d="M118.82 28.0026C118.804 27.0252 119.317 26.4113 120.139 26.4306C120.883 26.4471 121.704 26.9922 121.731 27.4891C121.773 28.2283 120.728 29.1644 119.84 29.1864C119.188 29.2015 118.835 28.7913 118.82 28.0026Z" fill="white"/>
<path d="M58.2461 61.0804C57.9777 58.878 58.889 57.1532 60.0577 55.1875C60.8739 56.7912 61.2841 58.1594 60.6372 59.6626C60.1871 60.7046 59.6144 61.0515 58.2461 61.0804Z" fill="white"/>
<path d="M91.5855 35.8074C91.8057 36.2204 91.9778 36.4296 92.037 36.6678C92.3972 38.1039 92.218 39.6223 91.5332 40.935C91.3721 41.2571 91.1684 41.6232 90.8793 41.7953C90.5214 42.0018 90.0121 42.1683 89.6501 42.0706C89.434 42.01 89.3252 41.4071 89.2605 41.0327C89.2384 40.758 89.2804 40.4819 89.3831 40.2261C89.8758 38.694 90.6591 37.3202 91.5855 35.8074Z" fill="white"/>
</g>
<defs>
<clipPath id="clip0">
<rect width="133.191" height="64" fill="white"/>
</clipPath>
</defs>
</svg>
