<?xml version="1.0" encoding="utf-8"?>
<!-- Generator: Adobe Illustrator 25.2.1, SVG Export Plug-In . SVG Version: 6.00 Build 0)  -->
<svg version="1.1" id="レイヤー_1" xmlns="http://www.w3.org/2000/svg" xmlns:xlink="http://www.w3.org/1999/xlink" x="0px"
	 y="0px" viewBox="0 0 134 64" style="enable-background:new 0 0 134 64;" xml:space="preserve">
<style type="text/css">
	.st0{clip-path:url(#SVGID_2_);fill:#010203;}
</style>
<g>
	<defs>
		<rect id="SVGID_1_" x="0.4" width="133.2" height="64"/>
	</defs>
	<clipPath id="SVGID_2_">
		<use xlink:href="#SVGID_1_"  style="overflow:visible;"/>
	</clipPath>
	<path class="st0" d="M122,40.5c1.3-1.8,2.1-7,1.5-9.6c-0.4,0.2-0.8,0.4-1.2,0.6c-2.2,1-4.3,0.5-5.3-1.3c-1.1-1.9-0.5-4.8,1.3-5.9
		c0.7-0.4,1.5-0.5,2.3-0.7c0.3-0.1,0.7,0,1.2,0c-0.2-1.1-0.7-2-1.3-2.8c-1.2-1.7-2.8-3.1-4.6-4.1c-1.5-0.9-3.2-1.2-4.9-0.4
		c-0.1,0-0.2,0.1-0.3,0.1c-1,0.3-1.7,0-2-0.7c-0.2-0.7,0.2-1.5,1.1-1.8c1.8-0.7,3.7-1,5.5-0.2c5.4,2.3,9,6,9.8,12.1
		c0,0.4,0.1,0.7,0.2,1.1c1.4,3.2,1.4,6.6,0.8,10c-0.1,0.4-0.1,0.9-0.2,1.5c0.8-0.4,1.4-0.7,2-0.9c0.9-0.4,1.8-0.8,2.8-1.2
		c0.3-0.1,0.7-0.2,1.1-0.2c0.4,0,0.7,0.1,1,0.3c0.5,0.3,0.8,0.7,0.7,1.4c-0.1,0.6-0.5,0.9-1.1,1c-3.2,0.7-6,2.3-8.5,4.2
		c-1.5,1.1-2.1,1.1-3.4-0.2c-1.5-1.5-3.1-3-4.7-4.4c-0.6-0.6-0.8-1.2-0.5-1.8c0.3-0.5,0.9-0.8,1.7-0.5c0.5,0.2,0.9,0.4,1.2,0.8
		C119.5,38.1,120.7,39.3,122,40.5z M119.2,28c0,0.8,0.4,1.2,1,1.2c0.9,0,1.9-1,1.9-1.7c0-0.5-0.8-1-1.6-1.1
		C119.7,26.4,119.2,27,119.2,28L119.2,28z"/>
	<path class="st0" d="M53.2,51.3c0.6,1.6,0,2.6-1.6,2.8c-1.1,0.1-1.8-0.7-1.7-1.8c0.5-3.8,4.4-6,7.8-4.2c1.1,0.6,2,1.4,3.2,2.2
		l4.9-3.9c-0.2-0.4-0.5-0.8-0.7-1.2c-0.3-0.6-0.6-1.1-0.8-1.7C64,42.7,64.3,42,65,41.6c0.9-0.6,1.9-0.2,2,0.9c0.1,1.3,0.1,1.3,1,2.2
		c0.2-0.1,0.5-0.2,0.8-0.4c0.3-0.2,0.7-0.5,1-0.7c1-0.7,1.9-0.7,2.4,0c0.5,0.7,0.2,1.5-0.8,2.3c-0.5,0.4-1,0.8-1.7,1.3
		c1.1,1.1,2.1,2.2,3.2,3.2c0.2,0.2,0.5,0.4,0.7,0.6c0.4,0.4,0.5,1,0.3,1.5c-0.1,0.3-0.4,0.5-0.7,0.6c-0.3,0.1-0.6,0.1-0.9,0
		c-0.6-0.2-1.1-0.5-1.5-0.9c-0.7-0.7-1.4-1.4-2.1-2.2c-0.4-0.4-0.7-0.8-1.2-1.3c-1.8,1.3-3.5,2.6-5.1,4.2c0.2,0.5,0.5,1,0.7,1.5
		c0.6,1.4,1,2.8,0.9,4.4c-0.1,1.9-1,3.4-2.5,4.5c-0.8,0.6-1.8,0.9-2.9,0.8c-1.6-0.1-2.7-1.1-2.9-2.8c-0.2-1.6,0.1-3.1,0.7-4.6
		c0.3-0.7,0.6-1.4,1-2.1c0.4-0.7,0.8-1.3,1.3-2c-0.7-1.1-1.6-1.7-2.7-2.2C54.8,49.8,54.2,50,53.2,51.3z M58.7,61.1
		c1.4,0,1.9-0.4,2.4-1.4c0.6-1.5,0.2-2.9-0.6-4.5C59.3,57.2,58.4,58.9,58.7,61.1L58.7,61.1z"/>
	<path class="st0" d="M88.8,35.5c-1.4,0.1-2.5,0.7-3.5,1.4c-0.5,0.3-0.9,0.8-1.4,1.1c-0.7,0.4-1.3,0.4-1.8,0
		c-0.5-0.5-0.6-1.2-0.2-1.9c0.5-0.8,1.1-1.4,1.7-2.2c0.5-0.7,0.9-1.4,1-2.4c-0.4,0-0.8-0.1-1.1,0c-0.9,0.4-1.8,0.8-2.7,1.2
		c-0.6,0.4-1.1,0.8-0.9,1.8c0.2,0.7-0.4,1.2-1.2,1.4c-1,0.2-1.9-0.3-2-1.2c-0.1-0.5,0-1.2,0.3-1.6c1.7-2.7,4.1-4.3,7.4-4.4
		c2-0.1,3,1.1,3,3.1c0,0.2,0,0.4,0,0.8c0.4,0,0.6-0.1,0.9-0.1c1-0.1,2-0.2,3-0.2c1.9,0.1,3.2,1.2,3.7,3c0.9,2.7,0.5,5.4-1.2,7.7
		C93,44.3,91.9,45,90.5,45c-2,0.1-3.4-1.2-3.6-3.2c-0.1-1.5,0.3-2.8,0.9-4.1C88.1,37.1,88.4,36.4,88.8,35.5z M92,35.8
		c-0.9,1.5-1.7,2.9-2.2,4.4c-0.1,0.3-0.1,0.5-0.1,0.8c0.1,0.4,0.2,1,0.4,1c0.4,0.1,0.9-0.1,1.2-0.3c0.3-0.2,0.5-0.5,0.7-0.9
		c0.7-1.3,0.9-2.8,0.5-4.3C92.4,36.4,92.2,36.2,92,35.8L92,35.8z"/>
	<path class="st0" d="M23.4,33.3c-1.8,1.6-3.4,3.2-4.7,5.2c-0.2,0.3-0.2,0.8-0.3,1.2c-0.1,0.8-0.5,1.2-1.2,1.3
		c-0.7,0.1-1.6-0.4-1.6-1.2c0-0.7,0.1-1.5,0.5-2.1c1.2-1.7,2.5-3.2,3.9-4.8c0.4-0.5,0.9-0.9,1.4-1.4c-0.5-0.5-0.9-0.9-1.3-1.4
		c-0.3-0.3-0.6-0.7-0.9-1.1c-0.5-0.8-0.2-1.7,0.5-2c0.8-0.4,1.9-0.1,2.2,0.8c0.2,0.8,0.7,1.2,1.4,1.8c0.8-0.7,1.7-1.5,2.5-2.2
		c0.5-0.4,1-0.9,1.6-1.3c0.8-0.6,1.6-0.5,2.1,0.1c0.5,0.6,0.3,1.6-0.4,2.2c-1.2,1-2.4,2-3.7,3c0.3,0.3,0.5,0.6,0.7,0.8
		c3.4,2.8,7.4,5,11.6,6.4c0.5,0.2,0.9,0.3,1.4,0c1.1-0.5,1.8-0.2,2.1,0.9c0.4,1.1-0.1,2.2-1.2,2.3c-0.7,0.1-1.6-0.1-2.3-0.3
		c-3.3-1-6.5-2.3-9.3-4.3c-1.4-1-2.8-2.1-4.2-3.1L23.4,33.3z"/>
	<path class="st0" d="M75.6,3.6c-0.3,0-0.4,0-0.6,0c-2.5,1-5,2.1-7.5,3.1c-0.4,0.2-0.8,0.6-1.2,0.9c-0.2,0.2-0.4,0.3-0.7,0.5
		c-0.7,0.3-1.4,0.2-1.8-0.2c-0.4-0.5-0.4-1.3,0.2-1.8c0.6-0.6,1.3-1.1,2.1-1.5c1.6-0.8,3.3-1.6,5-2.3c1.5-0.6,3-1.2,4.5-1.8
		C76.1,0.3,76.5,0.1,77,0c1.6-0.3,2.5,0.7,2.2,2.2c-0.1,0.6-0.4,1.2-0.7,1.8c-0.5,1.1-1,2.3-1.5,3.4c-0.2,0.6-0.4,1.1-0.5,1.7
		c-0.3,1.6,0.2,2.5,1.8,2.9c0.9,0.2,1.9,0.3,2.8,0.2c0.9,0,1.8-0.3,2.7-0.4c0.5-0.1,1-0.1,1.5,0c0.6,0.1,0.9,0.6,0.9,1.2
		c0,0.6-0.3,1-0.8,1.2c-3.1,0.8-6.2,1.5-9.2-0.1c-1.8-0.9-2.6-2.3-2.6-4.3c0-1.7,0.6-3.2,1.3-4.7C75.1,4.7,75.3,4.2,75.6,3.6z"/>
	<path class="st0" d="M53.2,30.1c-1.4,0-2.7-0.4-3.6-1.2c-1.2-1-2.3-2.1-3.2-3.4c-1.4-1.9-2.6-3.9-3.9-5.8c-0.2-0.3-0.4-0.6-0.4-0.9
		c0-0.4,0.2-1,0.5-1.2c0.3-0.2,1-0.3,1.2-0.1c0.6,0.4,1.3,1,1.6,1.7c1.1,2.4,2.7,4.4,4.3,6.3c0.5,0.6,1.1,1.1,1.8,1.4
		c1.2,0.7,2.1,0.6,3.1-0.5c0.7-0.7,1.2-1.5,1.7-2.3c0.6-1.1,1.1-2.3,1.7-3.5c0.6-1.2,1.3-1.6,2.1-1.3c0.8,0.3,1,1.2,0.5,2.4
		c-0.9,2-1.7,4.1-3.1,5.8C56.4,29,55,30.1,53.2,30.1z"/>
	<path class="st0" d="M17.4,56.6c0.6,0.2,1,0.3,1.5,0.5c0.8,0.3,1.1,0.8,1,1.4c-0.1,0.6-0.6,1.1-1.4,1c-1.8-0.1-3.4-0.8-4.7-1.9
		c-0.9-0.8-0.6-2.2,0.6-2.5c0.8-0.2,1.3-0.7,1.7-1.4c0.7-0.9,1.4-1.9,2.2-2.6c1.6-1.4,3.4-1.4,4.9,0.1c1,1,1.7,2.1,2.5,3.2
		c0.4,0.5,0.3,1.1-0.1,1.5c-0.4,0.5-0.8,1-1.2,1.5c-0.4,0.6-0.7,1.1-1.1,1.7c-0.1,0.2-0.2,0.3-0.3,0.5c-0.5,0.6-1.2,0.8-1.8,0.5
		c-0.3-0.2-0.6-0.5-0.7-0.8c-0.1-0.4-0.1-0.7,0.1-1.1c0.4-0.7,0.9-1.3,1.3-1.9c0.3-0.5,1.1-0.8,0.6-1.5c-0.5-0.7-1.1-1.4-1.8-2
		c-0.1-0.1-0.6,0.1-0.8,0.2C18.8,54,18,55.2,17.4,56.6L17.4,56.6z"/>
	<path class="st0" d="M23.4,42.9c0,0.3,0,0.6,0,0.9c0,0.9-0.5,1.4-1.3,1.5c-0.9,0.1-1.6-0.4-1.7-1.3c0-0.4,0-0.7,0.1-1.1
		c0.6-1.6,1.6-2.9,3.1-3.7c0.7-0.4,1.4-0.6,2.1-0.1c0.6,0.4,0.7,1.1,0.6,1.8c-0.1,0.4,0,0.9,0.2,1.2c0.7,1.3,1.5,2.5,2.4,3.8
		c0.4-0.5,0.7-0.8,1-1.1c0.2-0.3,0.4-0.6,0.7-0.8c0.4-0.4,1-0.6,1.5-0.2c0.5,0.4,0.7,0.9,0.5,1.4c-0.3,0.6-0.6,1.1-0.9,1.7
		c-0.9,1.2-1.8,2.4-2.7,3.6c-0.3,0.4-0.6,0.7-0.9,1c-0.6,0.6-1.3,0.7-1.9,0.3c-0.6-0.4-0.7-1.2-0.2-2c0.3-0.6,0.7-1.1,1.1-1.7
		l-3.4-5.3L23.4,42.9z"/>
	<path class="st0" d="M6.9,43.3C5.3,43,4,42.6,2.6,43.5c-0.8,0.5-1.6,0.3-2-0.4c-0.1-0.2-0.2-0.4-0.2-0.5c0-0.2,0-0.4,0-0.6
		c0-0.2,0.1-0.4,0.3-0.5c0.1-0.2,0.3-0.3,0.4-0.4c0.4-0.3,0.9-0.4,1.4-0.5c2.2-0.3,4.3-0.4,6.3,0.9c0.3-0.3,0.7-0.6,1-0.9
		c0.5-0.4,1-0.8,1.5-1.1c0.3-0.2,0.6-0.3,1-0.3c0.3,0,0.7,0.1,1,0.3c0.5,0.3,0.7,0.7,0.7,1.2c0,0.6-0.3,1-0.9,1.1
		c-0.8,0.1-1.4,0.6-2,1.2c-1.7,1.6-3.3,3.2-4.9,4.8c-0.6,0.6-1.1,1.2-1.1,2.1c-0.1,0.7-0.7,1.1-1.4,1c-0.7-0.1-1.3-0.6-1.2-1.4
		c0.1-0.6,0.2-1.2,0.6-1.7c0.8-1.1,1.8-2.2,2.7-3.3C6.1,44.2,6.4,43.9,6.9,43.3z"/>
	<path class="st0" d="M15.6,45c-0.2,0.3-0.5,0.6-0.8,0.9c-1.1,1-2.2,2-3.3,3.1c-0.3,0.3-0.4,0.7-0.5,1.1C10.7,51,9.7,51.5,9,51.2
		c-0.8-0.3-1.2-1.3-0.6-2.2c1.3-2.1,3-3.8,4.9-5.3C14.2,43,15.5,43.6,15.6,45z"/>
	<path class="st0" d="M10.6,52.6c0.1-0.2,0.2-0.7,0.5-1c1.4-1.6,2.8-3.1,4.3-4.6c0.3-0.2,0.6-0.4,0.9-0.6c0.8-0.3,1.5-0.1,1.8,0.5
		c0.3,0.6,0.1,1.1-0.5,1.7c-0.9,0.8-1.8,1.5-2.5,2.3c-0.6,0.6-0.9,1.3-1.4,2c-0.4,0.4-0.8,0.9-1.3,1.1
		C11.5,54.4,10.7,53.8,10.6,52.6z"/>
	<path class="st0" d="M26.1,22.3c-0.4,0-0.7,0-1.1,0c-1.1-0.1-1.8-0.8-1.7-1.7c0.1-0.8,1.3-1.6,2.1-1.3c0.9,0.4,1.8,0.4,2.8,0.5
		c0.6,0.1,1,0.4,1.1,1c0.1,0.6-0.3,1.1-1,1.3C27.7,22.3,26.9,22.3,26.1,22.3L26.1,22.3z"/>
</g>
</svg>
